<svg width="608" height="60" viewBox="0 0 608 60" fill="none" xmlns="http://www.w3.org/2000/svg">
<path fill-rule="evenodd" clip-rule="evenodd" d="M233.978 55.0518C232.743 54.4886 231.574 53.8041 230.487 53.0138H254.2C253.113 53.8041 251.945 54.4886 250.709 55.0518H233.978ZM-0.00537109 41.8144H75.366H82.233H115.66H125.101H137.139H144.005H159.777H212.386H222.813H261.874H279.504H289.936H347.096H399.704H415.476H422.342H446.239H458.441H492.205H499.071H607.869V44.6955H-0.00537109V41.8144ZM227.944 50.8229C226.747 49.6055 225.703 48.238 224.844 46.7496H259.844C258.985 48.238 257.94 49.6055 256.744 50.8229H227.944ZM222.367 39.6238C222.225 38.6588 222.151 37.6724 222.151 36.6686C222.151 25.5163 231.192 16.4753 242.344 16.4753C253.496 16.4753 262.537 25.5163 262.537 36.6686C262.537 37.6724 262.462 38.6588 262.321 39.6238H222.367ZM137.139 0.941406V39.6238H144.005V0.941406H137.139ZM137.139 46.7496V50.8229H144.005V46.7496H137.139ZM133.382 50.8229L129.638 46.7496H120.228L123.999 50.8229H133.382ZM123.087 39.6238L87.5289 0.941406H75.366V39.6238H82.233V7.80848H84.1787L113.631 39.6238H123.087ZM75.366 46.7496V50.8229H82.233V46.7496H75.366ZM75.366 53.0138V55.0518H82.233V53.0138H75.366ZM75.366 57.2428V59.2807H82.233V57.2428H75.366ZM126.027 53.0138L127.914 55.0518H144.005V53.0138H126.027ZM129.942 57.2428L131.829 59.2807H144.005V57.2428H129.942ZM212.839 59.2807H220.401L219.465 57.2428H211.904L212.839 59.2807ZM218.46 55.0518L217.525 53.0138H209.966L210.9 55.0518H218.46ZM216.52 50.8229L214.65 46.7496H207.093L208.961 50.8229H216.52ZM211.38 39.6238L193.629 0.941406H178.533L160.782 39.6238H168.329L182.926 7.80848H189.222L203.832 39.6238H211.38ZM157.512 46.7496L155.643 50.8229H163.198L165.07 46.7496H157.512ZM154.637 53.0138L153.702 55.0518H161.253L162.19 53.0138H154.637ZM152.697 57.2428L151.762 59.2807H159.31L160.246 57.2428H152.697ZM298.117 34.6635L336.717 0.941406H263.811V7.79446H318.439L292.904 30.1043L282.011 39.6238H292.442L298.117 34.6635ZM273.856 46.7496L269.195 50.8229H279.63L284.291 46.7496H273.856ZM266.687 53.0138L264.355 55.0518H332.436V53.0138H266.687ZM261.848 57.2428L259.516 59.2807H332.436V57.2428H261.848ZM400.158 59.2807H407.72L406.784 57.2428H399.223L400.158 59.2807ZM405.779 55.0518L404.844 53.0138H397.284L398.219 55.0518H405.779ZM403.838 50.8229L401.969 46.7496H394.412L396.28 50.8229H403.838ZM398.699 39.6238L380.948 0.941406H365.852L348.101 39.6238H355.649L370.245 7.80848H376.541L391.151 39.6238H398.699ZM344.831 46.7496L342.961 50.8229H350.516L352.388 46.7496H344.831ZM341.956 53.0138L341.021 55.0518H348.572L349.509 53.0138H341.956ZM340.016 57.2428L339.08 59.2807H346.628L347.565 57.2428H340.016ZM415.476 0.941406V39.6238H422.342V37.0681H439.259L443.017 39.6238H455.221L451.463 37.0681H470.104C475.344 36.8319 479.528 32.6479 479.792 27.4216V10.6298C479.556 5.3899 475.372 1.2056 470.145 0.941406H415.476ZM415.476 46.7496V50.8229H422.342V46.7496H415.476ZM415.476 53.0138V55.0518H422.342V53.0138H415.476ZM415.476 57.2428V59.2807H422.342V57.2428H415.476ZM453.496 46.7496L459.487 50.8229H471.686L465.697 46.7496H453.496ZM462.709 53.0138L465.706 55.0518H477.904L474.908 53.0138H462.709ZM468.927 57.2428L471.925 59.2807L484.101 59.2668L481.125 57.2428H468.927ZM469.797 7.79446C470.618 7.83603 471.396 8.18338 471.98 8.76732C472.564 9.35088 472.897 10.1159 472.939 10.936V27.0738C472.897 27.894 472.55 28.6726 471.966 29.2425C471.383 29.8261 470.618 30.1734 469.797 30.2154L422.342 30.1043V7.79446H469.797ZM547.096 7.80848V0.941406H492.205V39.6238H499.071V33.5376H547.096V26.6705H499.071V7.80848H547.096ZM492.205 46.7496V50.8229H499.071V46.7496H492.205ZM492.205 53.0138V55.0518H547.096V53.0138H492.205ZM492.205 57.2428V59.2807H547.096V57.2428H492.205Z" fill="white"/>
</svg>
