<svg width="803" height="515" fill="none" xmlns="http://www.w3.org/2000/svg"><path d="M759.795 0H42.872C19.18 0 0 19.59 0 43.692v426.975c0 24.102 19.18 43.692 42.77 43.692h716.922c23.59 0 42.77-19.59 42.77-43.692V43.692C802.564 19.59 783.385 0 759.795 0ZM298.564 356.41h-61.538V239.487a4.114 4.114 0 0 0-4.103-4.102c-2.051 0-3.692 1.436-4 3.384l-36 117.641h-44.205l-35.897-117.743c-.308-1.846-1.949-3.282-4-3.282a4.114 4.114 0 0 0-4.103 4.102V356.41H43.179V155.385h68.616c11.282 0 23.179 8.82 26.461 19.589l29.949 97.949c1.539 4.923 3.898 4.821 5.436 0l29.949-97.949c3.282-10.871 15.179-19.589 26.461-19.589h68.513V356.41Zm228.718 0h-61.538V236.923c-.103-1.949-1.641-3.59-3.693-3.59-1.436 0-2.564.718-3.179 1.949v.103c0 .102-.103.205-.103.307l-50.256 107.795c-3.18 6.975-11.795 12.616-19.59 13.026h-61.538V155.487h61.538V272.41a4.115 4.115 0 0 0 4.103 4.103 4.122 4.122 0 0 0 3.384-1.744c.205-.41.411-.718.513-1.231l48.923-105.025c3.282-7.077 12.103-12.718 19.898-13.026h61.538V356.41Zm162.051-64.615H619.59v65.641h-61.539V246.667h194.975c-9.436 26.154-34.359 44.923-63.693 45.128Zm66.257-55.385H648.615c-52.307 0-95.179-35.795-98.769-81.025h139.282c37.436.307 67.693 30.666 67.693 68.205 0 4.41-.411 8.718-1.231 12.82Z" fill="#fff"/></svg>