<svg width="929" height="929" viewBox="0 0 929 929" fill="none" xmlns="http://www.w3.org/2000/svg">
<g filter="url(#filter0_d_330_22)">
<rect x="10" y="4" width="909" height="909" rx="150" fill="white"/>
<g clip-path="url(#clip0_330_22)">
<mask id="mask0_330_22" style="mask-type:luminance" maskUnits="userSpaceOnUse" x="153" y="85" width="623" height="747">
<path d="M776 85H153V832H776V85Z" fill="white"/>
</mask>
<g mask="url(#mask0_330_22)">
<path d="M463.119 85.899C462.605 86.4447 462.573 91.934 462.541 157.902C462.509 201.4 462.38 228.911 462.22 228.333C462.059 227.787 456.793 196.521 450.531 158.834C444.268 121.146 439.034 89.8795 438.873 89.3338C438.745 88.8202 438.263 88.1782 437.782 87.9213C437.043 87.504 436.882 87.504 436.112 87.9855C435.469 88.435 435.277 88.7881 435.277 89.7511C435.277 90.3932 440.479 121.981 446.805 159.957C453.132 197.901 458.302 229.007 458.27 229.039C458.238 229.103 448.186 199.057 435.951 162.268C423.716 125.512 413.504 95.1121 413.247 94.6947C412.38 93.3465 409.907 94.1169 409.907 95.722C409.907 96.043 419.862 126.283 432.065 162.942C444.236 199.57 454.192 229.617 454.127 229.681C454.063 229.713 439.452 201.592 421.628 167.148C396.452 118.482 389.065 104.454 388.488 104.229C387.492 103.844 386.175 104.486 385.95 105.449C385.79 105.994 386.272 107.246 387.588 109.814C388.616 111.773 402.296 138.256 418 168.624C433.735 198.992 447.576 225.797 448.828 228.173C450.049 230.548 450.723 232.089 450.306 231.543C449.888 231.03 431.102 205.445 408.526 174.724C385.95 144.003 367.164 118.61 366.747 118.257C365.077 116.973 362.989 118.771 364.017 120.601C364.37 121.211 441.41 226.182 446.484 232.988C447.191 233.919 447.223 234.015 446.645 233.63C446.292 233.373 423.78 211.127 396.612 184.194C369.477 157.261 346.933 135.111 346.483 134.95C345.391 134.532 344.074 135.432 344.074 136.651C344.074 137.454 350.787 144.227 394.172 187.243C421.725 214.561 444.268 236.968 444.268 237.065C444.268 237.161 444.076 237.097 443.883 236.904C443.658 236.744 417.968 218.189 386.785 195.718C355.603 173.247 329.752 154.821 329.303 154.757C327.665 154.5 326.637 156.265 327.665 157.582C327.986 157.999 353.902 176.842 385.276 199.442C416.619 222.041 442.245 240.563 442.213 240.596C442.181 240.628 413.729 226.278 378.982 208.719C330.94 184.418 315.59 176.778 315.044 176.938C313.984 177.195 313.342 178.832 313.92 179.732C314.177 180.117 340.317 193.503 377.248 212.186C411.834 229.681 440.062 244.03 440.029 244.095C439.965 244.127 409.747 234.432 372.848 222.523C332.867 209.618 305.507 200.95 305.153 201.079C304.286 201.336 303.612 202.555 303.837 203.39C303.933 203.807 304.383 204.321 304.864 204.546C305.314 204.771 335.629 214.626 372.238 226.407C408.847 238.22 438.745 247.947 438.681 248.011C438.617 248.043 407.178 243.164 368.834 237.129C301.428 226.535 299.084 226.182 298.474 226.728C297.671 227.434 297.639 228.879 298.377 229.553C298.795 229.906 317.003 232.892 366.554 240.692C403.742 246.534 435.084 251.478 436.24 251.703C437.91 252.024 423.941 252.12 366.554 252.249L294.813 252.409L294.299 253.276C293.882 254.078 293.882 254.271 294.299 255.041L294.813 255.94H464.5H634.219L634.637 255.041C634.989 254.335 634.989 254.014 634.637 253.276L634.219 252.409L561.643 252.249C521.726 252.152 489.227 252.056 489.388 251.992C489.58 251.959 521.244 246.663 559.813 240.242C598.382 233.79 630.143 228.365 630.398 228.14C630.945 227.691 631.008 225.893 630.46 225.348C630.239 225.123 629.561 224.962 628.951 224.962C628.311 224.962 596.743 230.163 558.753 236.487C520.795 242.811 489.677 247.979 489.613 247.915C489.58 247.883 519.799 237.771 556.826 225.476C618.548 204.963 624.168 203.037 624.49 202.299C625.004 201.207 624.264 199.795 623.139 199.698C622.692 199.634 592.345 209.554 555.702 221.752C519.06 233.919 489.034 243.838 489.002 243.774C488.938 243.742 516.813 229.264 550.949 211.608C585.052 193.984 613.313 179.282 613.731 178.961C615.274 177.741 614.053 175.109 612.222 175.686C611.708 175.847 532.484 216.712 489.869 238.798C487.847 239.857 486.401 240.532 486.69 240.307C486.947 240.082 512.702 221.142 543.917 198.222C576.606 174.21 600.724 156.297 600.82 155.912C601.079 155.109 600.276 153.826 599.344 153.536C598.83 153.376 598.19 153.633 596.839 154.564C595.844 155.238 570.249 174.017 539.967 196.263C509.683 218.51 484.667 236.84 484.41 236.968C484.153 237.129 491.09 230.034 499.824 221.238C557.404 163.296 583.221 137.165 583.543 136.523C584.442 134.821 582.548 133.12 580.942 134.147C580.558 134.404 558.014 157.036 530.814 184.418C503.646 211.833 481.359 234.272 481.295 234.272C481.231 234.272 483.415 231.19 486.112 227.434C488.81 223.711 507.339 198.029 527.249 170.454C547.16 142.847 563.602 119.926 563.794 119.509C564.469 118 562.638 116.427 561.193 117.23C560.84 117.423 542.15 143.072 519.703 174.242C497.255 205.413 478.662 231.126 478.405 231.382C478.116 231.64 480.717 226.311 484.185 219.505C521.822 145.319 541.636 105.898 541.636 105.256C541.668 104.421 540.544 103.298 539.742 103.298C539.517 103.298 538.971 103.619 538.585 104.036C538.2 104.421 523.653 132.895 506.247 167.244C488.874 201.625 474.583 229.713 474.552 229.649C474.487 229.585 484.153 199.506 496.003 162.814C507.853 126.122 517.551 95.722 517.551 95.3368C517.583 93.828 515.464 92.9613 514.436 94.0206C514.212 94.2774 504.224 124.742 492.278 161.723C480.332 198.703 470.473 229.039 470.377 229.136C470.312 229.232 470.312 228.943 470.409 228.494C470.537 228.044 475.515 196.488 481.52 158.352C491.539 94.6626 492.374 88.9807 491.957 88.3066C491.09 86.9904 489.099 87.3756 488.617 88.9486C488.457 89.5264 483.415 121.082 477.442 159.09L466.587 228.236L466.427 157.228C466.266 87.4077 466.266 86.22 465.656 85.7705C464.789 85.1606 463.729 85.1927 463.119 85.899Z" fill="#354D6D"/>
<path d="M333.349 310.898C332.707 314.044 331.679 318.923 331.101 321.748C330.298 325.536 330.137 326.659 330.523 326.082C331.583 324.38 335.34 321.01 337.62 319.694C346.515 314.493 359.425 311.604 379.56 310.352C384.634 310.031 428.533 309.87 428.533 310.192C428.533 310.962 401.847 357.701 357.787 434.103C348.41 450.346 340.093 464.632 339.322 465.884C335.822 471.341 332.771 474.872 329.334 477.408L327.312 478.884H384.152H441.025L441.378 477.022C441.603 476.028 442.598 471.276 443.626 466.526C444.654 461.742 445.457 457.826 445.392 457.762C445.36 457.73 444.75 458.436 444.076 459.367C441.667 462.609 436.112 466.076 429.785 468.291C419.927 471.726 407.627 473.491 389.74 474.069C379.046 474.422 351.364 474.487 351.043 474.197C350.85 474.005 351.043 473.62 355.25 466.044C366.586 445.628 437.235 323.161 440.639 317.96C444.365 312.278 447.191 309.196 451.815 305.73C452.393 305.28 446.099 305.248 393.497 305.216H334.537L333.349 310.898Z" fill="#354D6D"/>
<path d="M519.735 306.05C519.285 306.114 517.648 306.339 516.042 306.532C507.436 307.623 497.32 311.283 489.227 316.291C468.546 329.099 454.448 351.41 450.306 377.925C449.696 381.81 449.599 383.736 449.599 392.21C449.599 400.814 449.663 402.547 450.306 406.56C453.357 425.981 461.481 442.77 474.134 455.9C485.309 467.488 499.086 474.904 514.5 477.632C520.442 478.692 530.91 478.692 536.852 477.632C552.491 474.872 566.139 467.456 577.635 455.482C591.057 441.454 599.57 422.45 601.623 401.841C602.108 396.929 602.041 386.561 601.464 381.456C599.214 361.104 590.739 342.582 577.38 328.682C565.946 316.804 552.009 309.325 536.434 306.66C533.544 306.147 521.629 305.729 519.735 306.05ZM531.135 310.705C554.674 313.594 575.001 334.46 583.096 364.122C585.73 373.688 586.658 380.943 586.658 391.889C586.658 402.836 585.696 410.187 583.125 419.593C578.02 438.148 568.162 453.62 555.349 463.058C548.701 468.002 542.343 470.891 534.668 472.496C529.658 473.555 522.079 473.555 516.909 472.528C506.986 470.538 498.091 465.723 490.094 458.051C476.414 444.921 467.679 425.628 465.11 402.964C464.885 401.006 464.693 396.031 464.693 391.889C464.693 383.864 465.014 379.98 466.298 372.789C470.698 347.975 484.057 327.077 502.105 316.708C510.775 311.732 521.469 309.517 531.135 310.705Z" fill="#354D6D"/>
<path d="M330.427 483.379C331.711 485.112 332.867 488.098 333.509 491.244C334.055 493.844 334.312 635.669 333.83 642.441C333.509 646.68 332.771 650.179 331.872 651.943C331.647 652.361 330.972 653.322 330.362 654.062L329.27 655.442H341.345H353.452L352.199 654.029C350.883 652.553 350.176 650.852 349.309 647.257C348.859 645.267 348.763 641.639 348.667 616.503L348.538 588.028H370.632L392.727 588.061L407.98 612.971C416.362 626.678 423.941 639.101 424.776 640.581C428.212 646.584 429.849 651.495 429.272 654.029L428.95 655.442H441.121H453.324L450.787 653.548C447.962 651.429 446.517 649.986 443.594 646.295C440.672 642.633 439.708 641.124 422.528 612.942C409.811 592.074 407.145 587.518 407.595 587.325C407.884 587.225 409.875 586.907 411.994 586.619C432.387 583.918 446.966 575.157 453.902 561.417C459.747 549.829 461.385 532.109 457.756 519.493C452.618 501.484 436.882 487.969 415.977 483.54C408.719 481.998 409.137 481.998 368.031 481.87L329.206 481.742L330.427 483.379ZM403.484 487.969C411.256 489.607 414.178 490.505 419.413 493.009C427.858 497.022 434.153 502.575 438.424 509.862C443.112 517.855 444.975 527.068 444.268 538.818C442.759 563.599 431.584 577.05 408.623 581.707C399.856 583.505 397.832 583.63 372.238 583.76L348.538 583.919L348.667 538.208C348.763 497.407 348.827 492.271 349.309 490.184C349.598 488.9 349.919 487.713 350.016 487.52C350.176 487.295 358.365 487.231 375.642 487.327C397.19 487.424 401.429 487.52 403.484 487.969Z" fill="#354D6D"/>
<path d="M469.606 482.898C471.661 485.241 472.657 488.194 473.171 493.491C473.62 498.402 473.62 638.717 473.138 643.277C472.593 648.703 471.501 652.01 469.478 654.447L468.611 655.442H480.717H492.792L491.668 653.966C490.287 652.168 489.388 649.857 488.713 646.358C488.296 644.205 488.168 640.389 488.071 624.947L487.911 606.166L506.312 583.952C516.427 571.754 524.841 561.772 525.002 561.835C525.13 561.868 534.636 578.785 546.132 599.427C557.597 620.098 568.033 638.846 569.35 641.158C572.818 647.223 573.814 649.857 573.847 652.938V655.442H585.855H597.868L596.292 654.413C593.821 652.812 588.552 647.29 585.634 643.181C583.802 640.61 575.164 625.587 558.271 595.539C544.655 571.37 533.544 551.53 533.544 551.434C533.544 550.983 578.212 497.375 580.687 494.807C585.245 490.152 589.326 487.167 595.94 483.668L599.536 481.774H589.903H580.269V484.727C580.236 488.997 578.793 492.913 575.678 497.022C572.722 500.906 488.489 602.474 488.2 602.474C488.039 602.474 487.975 579.747 488.039 547.484C488.136 493.202 488.136 492.496 488.81 489.607C489.548 486.364 490.351 484.599 491.828 482.898L492.824 481.774H480.717H468.611L469.606 482.898Z" fill="#354D6D"/>
<path d="M159.84 490.794C155.954 491.532 153.225 494.807 153.193 498.723C153.193 501.099 153.771 502.736 155.216 504.34C159.262 508.834 166.327 507.713 168.928 502.158C171.69 496.284 166.295 489.51 159.84 490.794Z" fill="#354D6D"/>
<path d="M765.789 490.794C761.742 491.564 759.045 495.32 759.367 499.59C760.04 507.906 771.409 510.021 774.909 502.479C775.87 500.456 775.937 497.31 775.068 495.416C773.558 492.046 769.515 490.056 765.789 490.794Z" fill="#354D6D"/>
<path d="M439.612 721.957C402.778 815.919 402.264 817.202 400.916 819.961C399.053 823.845 396.58 827.444 394.236 829.655L392.148 831.678H397.961C401.172 831.678 403.806 831.616 403.806 831.549C403.806 831.486 403.581 830.813 403.292 830.044C402.425 827.603 403.035 822.917 404.962 817.395C405.379 816.14 408.88 807.153 412.733 797.396L419.702 779.677L458.559 779.739L497.416 779.835L502.008 791.553C510.518 813.348 512.413 818.327 513.216 821.408C514.18 825.036 514.308 828.66 513.537 830.491L513.023 831.678H524.97H536.883L535.053 830.044C532.773 828.021 529.562 823.238 527.507 818.807C526.639 816.976 512.156 780.254 495.329 737.206C478.469 694.188 464.628 658.974 464.5 658.974C464.403 658.974 453.196 687.32 439.612 721.957ZM477.634 729.276L496.196 776.625L458.623 776.721C437.942 776.755 420.986 776.755 420.954 776.688C420.858 776.592 457.917 681.639 458.302 681.028C458.431 680.803 458.623 680.932 458.784 681.317C458.944 681.639 467.422 703.242 477.634 729.276Z" fill="#354D6D"/>
</g>
</g>
</g>
<defs>
<filter id="filter0_d_330_22" x="0" y="0" width="929" height="929" filterUnits="userSpaceOnUse" color-interpolation-filters="sRGB">
<feFlood flood-opacity="0" result="BackgroundImageFix"/>
<feColorMatrix in="SourceAlpha" type="matrix" values="0 0 0 0 0 0 0 0 0 0 0 0 0 0 0 0 0 0 127 0" result="hardAlpha"/>
<feOffset dy="6"/>
<feGaussianBlur stdDeviation="5"/>
<feComposite in2="hardAlpha" operator="out"/>
<feColorMatrix type="matrix" values="0 0 0 0 0 0 0 0 0 0 0 0 0 0 0 0 0 0 0.25 0"/>
<feBlend mode="normal" in2="BackgroundImageFix" result="effect1_dropShadow_330_22"/>
<feBlend mode="normal" in="SourceGraphic" in2="effect1_dropShadow_330_22" result="shape"/>
</filter>
<clipPath id="clip0_330_22">
<rect width="623" height="747" fill="white" transform="translate(153 85)"/>
</clipPath>
</defs>
</svg>
