<svg width="1490" height="1787" viewBox="0 0 1490 1787" fill="none" xmlns="http://www.w3.org/2000/svg">
<g clip-path="url(#clip0_100_12)">
<path d="M741.697 2.15019C740.468 3.45569 740.392 16.5875 740.315 174.399C740.238 278.456 739.931 344.268 739.547 342.886C739.163 341.58 726.567 266.783 711.59 176.627C696.613 86.4702 684.094 11.6727 683.71 10.3672C683.403 9.13846 682.251 7.60258 681.099 6.98823C679.332 5.9899 678.948 5.9899 677.105 7.14181C675.569 8.21693 675.108 9.06167 675.108 11.3655C675.108 12.9014 687.55 88.4668 702.681 179.314C717.811 270.085 730.177 344.499 730.1 344.575C730.023 344.729 705.983 272.85 676.721 184.843C647.459 96.9142 623.035 24.1901 622.421 23.1918C620.347 19.9664 614.433 21.8095 614.433 25.6492C614.433 26.4171 638.242 98.7572 667.428 186.456C696.537 274.078 720.346 345.958 720.192 346.111C720.039 346.188 685.093 278.916 642.466 196.516C582.252 80.0963 564.587 46.5372 563.205 45.9997C560.824 45.0781 557.675 46.614 557.137 48.9178C556.753 50.2233 557.905 53.2183 561.054 59.3618C563.512 64.0463 596.23 127.401 633.788 200.049C671.422 272.696 704.524 336.819 707.519 342.502C710.438 348.185 712.051 351.871 711.052 350.565C710.054 349.337 665.124 288.132 611.13 214.64C557.137 141.148 512.207 80.4034 511.208 79.5587C507.214 76.4869 502.222 80.7874 504.68 85.1647C505.525 86.6238 689.778 337.741 701.913 354.021C703.602 356.248 703.679 356.478 702.297 355.557C701.452 354.943 647.612 301.724 582.636 237.294C517.737 172.864 463.82 119.876 462.745 119.492C460.133 118.493 456.984 120.644 456.984 123.562C456.984 125.482 473.037 141.685 576.799 244.589C642.697 309.941 696.613 363.543 696.613 363.774C696.613 364.004 696.152 363.851 695.692 363.39C695.154 363.006 633.711 318.619 559.134 264.863C484.557 211.107 422.73 167.027 421.655 166.874C417.738 166.259 415.28 170.483 417.738 173.632C418.506 174.63 480.487 219.708 555.524 273.771C630.485 327.834 691.775 372.144 691.698 372.221C691.621 372.298 623.573 337.971 540.471 295.965C425.572 237.831 388.859 219.554 387.554 219.938C385.019 220.553 383.483 224.469 384.865 226.62C385.48 227.541 447.998 259.564 536.323 304.258C619.041 346.111 686.552 380.438 686.475 380.592C686.322 380.669 614.049 357.477 525.801 328.986C430.18 298.115 364.743 277.38 363.898 277.688C361.824 278.302 360.211 281.22 360.749 283.217C360.979 284.215 362.055 285.444 363.207 285.981C364.282 286.519 436.785 310.095 524.342 338.278C611.898 366.538 683.403 389.807 683.249 389.961C683.096 390.037 607.905 378.365 516.2 363.927C354.989 338.585 349.382 337.741 347.923 339.046C346.002 340.736 345.926 344.191 347.692 345.804C348.691 346.649 392.239 353.791 510.747 372.452C599.687 386.428 674.647 398.254 677.412 398.792C681.406 399.56 647.996 399.79 510.747 400.098L339.167 400.481L337.938 402.555C336.94 404.475 336.94 404.936 337.938 406.779L339.167 408.929H745H1150.91L1151.91 406.779C1152.75 405.089 1152.75 404.321 1151.91 402.555L1150.91 400.481L977.332 400.098C881.865 399.867 804.139 399.637 804.523 399.483C804.984 399.406 880.713 386.735 972.955 371.376C1065.2 355.941 1141.16 342.963 1141.77 342.425C1143.08 341.35 1143.23 337.05 1141.92 335.744C1141.39 335.206 1139.77 334.822 1138.31 334.822C1136.78 334.822 1061.28 347.263 970.42 362.392C879.638 377.52 805.214 389.884 805.061 389.73C804.984 389.654 877.257 365.463 965.812 336.051C1113.43 286.98 1126.87 282.372 1127.64 280.606C1128.87 277.995 1127.1 274.616 1124.41 274.385C1123.34 274.232 1050.76 297.961 963.124 327.143C875.49 356.248 803.678 379.977 803.601 379.824C803.448 379.747 870.114 345.113 951.757 302.876C1033.32 260.716 1100.91 225.544 1101.91 224.776C1105.6 221.858 1102.68 215.561 1098.3 216.943C1097.07 217.327 907.594 315.086 805.675 367.921C800.837 370.455 797.38 372.068 798.072 371.53C798.686 370.993 860.283 325.684 934.937 270.853C1013.12 213.411 1070.8 170.56 1071.03 169.638C1071.65 167.718 1069.73 164.647 1067.5 163.955C1066.27 163.572 1064.74 164.186 1061.51 166.413C1059.13 168.026 997.916 212.95 925.49 266.168C853.063 319.387 793.233 363.236 792.618 363.543C792.004 363.927 808.594 346.956 829.484 325.914C967.194 187.301 1028.94 124.79 1029.71 123.255C1031.86 119.184 1027.33 115.114 1023.49 117.572C1022.57 118.186 968.654 172.326 903.6 237.831C838.624 303.414 785.322 357.093 785.168 357.093C785.015 357.093 790.238 349.721 796.689 340.736C803.141 331.828 847.457 270.392 895.075 204.426C942.694 138.383 982.017 83.552 982.478 82.5537C984.091 78.9443 979.713 75.1814 976.257 77.1013C975.412 77.5621 930.712 138.921 877.026 213.488C823.34 288.055 778.871 349.567 778.256 350.181C777.565 350.796 783.786 338.048 792.081 321.767C882.095 144.296 929.483 49.993 929.483 48.4571C929.56 46.4604 926.872 43.7726 924.952 43.7726C924.414 43.7726 923.109 44.5406 922.187 45.5389C921.265 46.4604 886.473 114.577 844.845 196.747C803.294 278.993 769.116 346.188 769.04 346.034C768.886 345.881 792.004 273.925 820.345 186.149C848.685 98.3733 871.88 25.6492 871.88 24.7277C871.957 21.1184 866.888 19.0449 864.43 21.5791C863.893 22.1935 840.007 95.0711 811.435 183.538C782.864 272.005 759.285 344.575 759.055 344.806C758.901 345.036 758.901 344.345 759.132 343.27C759.439 342.195 771.344 266.706 785.706 175.475C809.669 23.115 811.666 9.52243 810.667 7.90976C808.594 4.7612 803.832 5.68273 802.68 9.44564C802.296 10.8279 790.238 86.3166 775.952 177.241L749.992 342.655L749.608 172.787C749.224 5.75952 749.224 2.91814 747.765 1.84302C745.691 0.383929 743.157 0.460723 741.697 2.15019Z" fill="white"/>
<path d="M431.332 540.401C429.796 547.926 427.338 559.599 425.955 566.357C424.035 575.419 423.651 578.106 424.573 576.724C427.108 572.654 436.094 564.591 441.547 561.442C462.821 549.001 493.697 542.09 541.853 539.095C553.988 538.327 658.979 537.943 658.979 538.711C658.979 540.554 595.155 652.366 489.78 835.136C467.353 873.994 447.461 908.168 445.617 911.163C437.246 924.218 429.949 932.665 421.731 938.732L416.893 942.264H552.836H688.856L689.701 937.81C690.238 935.43 692.619 924.064 695.077 912.699C697.535 901.256 699.455 891.887 699.301 891.734C699.225 891.657 697.765 893.346 696.152 895.573C690.392 903.33 677.105 911.623 661.975 916.922C638.396 925.139 608.98 929.363 566.2 930.745C540.624 931.59 474.419 931.744 473.651 931.052C473.19 930.592 473.651 929.67 483.712 911.547C510.824 862.706 679.793 569.736 687.934 557.295C696.844 543.703 703.602 536.33 714.662 528.037C716.045 526.962 700.991 526.885 575.186 526.808H434.174L431.332 540.401Z" fill="white"/>
<path d="M877.103 528.805C876.028 528.958 872.111 529.496 868.271 529.956C847.687 532.567 823.494 541.322 804.139 553.302C754.677 583.943 720.96 637.315 711.052 700.747C709.593 710.039 709.363 714.646 709.363 734.92C709.363 755.501 709.516 759.648 711.052 769.247C718.349 815.708 737.78 855.871 768.041 887.28C794.769 915.002 827.718 932.742 864.584 939.269C878.793 941.804 903.831 941.804 918.04 939.269C955.443 932.665 988.085 914.926 1015.58 886.281C1047.68 852.722 1068.04 807.26 1072.95 757.958C1074.11 746.209 1073.95 721.404 1072.57 709.194C1067.19 660.507 1046.92 616.196 1014.97 582.944C987.624 554.531 954.291 536.638 917.041 530.264C910.129 529.035 881.634 528.037 877.103 528.805ZM904.368 539.94C960.666 546.851 1009.28 596.767 1028.64 667.725C1034.94 690.61 1037.16 707.965 1037.16 734.152C1037.16 760.339 1034.86 777.925 1028.71 800.425C1016.5 844.813 992.924 881.827 962.279 904.405C946.38 916.231 931.173 923.143 912.817 926.982C900.835 929.516 882.71 929.516 870.344 927.059C846.612 922.298 825.337 910.779 806.213 892.425C773.494 861.016 752.604 814.863 746.459 760.646C745.922 755.962 745.461 744.059 745.461 734.152C745.461 714.954 746.229 705.662 749.301 688.46C759.823 629.098 791.774 579.105 834.938 554.3C855.675 542.397 881.25 537.098 904.368 539.94Z" fill="white"/>
<path d="M424.343 953.016C427.415 957.162 430.18 964.304 431.716 971.83C433.021 978.05 433.636 1317.33 432.484 1333.53C431.716 1343.67 429.949 1352.04 427.799 1356.26C427.261 1357.26 425.648 1359.56 424.189 1361.33L421.578 1364.63H450.456H479.411L476.416 1361.25C473.267 1357.72 471.577 1353.65 469.503 1345.05C468.428 1340.29 468.198 1331.61 467.967 1271.48L467.66 1203.36H520.501L573.343 1203.44L609.825 1263.03C629.87 1295.82 647.996 1325.54 649.993 1329.08C658.211 1343.44 662.128 1355.19 660.746 1361.25L659.978 1364.63H689.086H718.272L712.204 1360.1C705.446 1355.03 701.99 1351.58 695 1342.75C688.011 1333.99 685.707 1330.38 644.617 1262.96C614.202 1213.04 607.828 1202.14 608.903 1201.68C609.594 1201.44 614.356 1200.68 619.425 1199.99C668.196 1193.53 703.065 1172.57 719.654 1139.7C733.633 1111.98 737.55 1069.59 728.871 1039.41C716.582 996.327 678.948 963.997 628.949 953.4C611.591 949.713 612.59 949.713 514.28 949.406L421.424 949.099L424.343 953.016ZM599.072 963.997C617.659 967.914 624.648 970.064 637.167 976.054C657.366 985.653 672.42 998.938 682.635 1016.37C693.848 1035.49 698.303 1057.53 696.613 1085.64C693.003 1144.92 666.276 1177.1 611.361 1188.24C590.393 1192.54 585.554 1192.84 524.342 1193.15L467.66 1193.53L467.967 1084.18C468.198 986.575 468.351 974.288 469.503 969.296C470.195 966.224 470.963 963.383 471.193 962.922C471.577 962.384 491.162 962.231 532.483 962.461C584.018 962.692 594.157 962.922 599.072 963.997Z" fill="white"/>
<path d="M757.212 951.864C762.127 957.47 764.508 964.535 765.737 977.206C766.812 988.955 766.812 1324.62 765.66 1335.53C764.355 1348.51 761.743 1356.42 756.905 1362.25L754.831 1364.63H783.786H812.664L809.976 1361.1C806.674 1356.8 804.523 1351.27 802.91 1342.9C801.912 1337.75 801.605 1328.62 801.374 1291.68L800.99 1246.75L844.999 1193.61C869.192 1164.43 889.315 1140.55 889.699 1140.7C890.006 1140.78 912.74 1181.25 940.236 1230.63C967.655 1280.08 992.616 1324.93 995.765 1330.46C1004.06 1344.97 1006.44 1351.27 1006.52 1358.64V1364.63H1035.24H1063.97L1060.2 1362.17C1054.29 1358.34 1041.69 1345.13 1034.71 1335.3C1030.33 1329.15 1009.67 1293.21 969.268 1221.33C936.703 1163.51 910.129 1116.05 910.129 1115.82C910.129 1114.74 1016.96 986.498 1022.88 980.354C1033.78 969.219 1043.54 962.077 1059.36 953.707L1067.96 949.176H1044.92H1021.88V956.241C1021.8 966.455 1018.35 975.823 1010.9 985.653C1003.83 994.945 802.373 1237.92 801.681 1237.92C801.297 1237.92 801.144 1183.55 801.297 1106.37C801.528 976.515 801.528 974.825 803.141 967.914C804.907 960.157 806.827 955.934 810.36 951.864L812.741 949.176H783.786H754.831L757.212 951.864Z" fill="white"/>
<path d="M16.3591 970.755C7.06585 972.521 0.537497 980.354 0.460693 989.723C0.460693 995.406 1.84317 999.322 5.29935 1003.16C14.9767 1013.91 31.8736 1011.23 38.0947 997.94C44.6999 983.887 31.7968 967.683 16.3591 970.755Z" fill="white"/>
<path d="M1465.58 970.755C1455.9 972.598 1449.45 981.583 1450.22 991.797C1451.83 1011.69 1479.02 1016.75 1487.39 998.708C1489.69 993.87 1489.85 986.344 1487.77 981.813C1484.16 973.75 1474.49 968.989 1465.58 970.755Z" fill="white"/>
<path d="M685.477 1523.75C597.382 1748.53 596.154 1751.6 592.928 1758.2C588.473 1767.49 582.559 1776.1 576.952 1781.39L571.96 1786.23H585.862C593.542 1786.23 599.84 1786.08 599.84 1785.92C599.84 1785.77 599.302 1784.16 598.611 1782.32C596.538 1776.48 597.997 1765.27 602.605 1752.06C603.604 1749.06 611.975 1727.56 621.192 1704.22L637.858 1661.83L730.791 1661.98L823.724 1662.21L834.707 1690.24C855.06 1742.38 859.592 1754.29 861.512 1761.66C863.816 1770.34 864.123 1779.01 862.28 1783.39L861.051 1786.23H889.622H918.116L913.739 1782.32C908.285 1777.48 900.605 1766.04 895.69 1755.44C893.616 1751.06 858.977 1663.21 818.732 1560.23C778.41 1457.32 745.307 1373.08 745 1373.08C744.769 1373.08 717.965 1440.89 685.477 1523.75ZM776.413 1541.26L820.806 1654.53L730.945 1654.76C681.483 1654.84 640.93 1654.84 640.854 1654.68C640.623 1654.45 729.255 1427.3 730.177 1425.84C730.484 1425.3 730.945 1425.61 731.329 1426.53C731.713 1427.3 751.989 1478.98 776.413 1541.26Z" fill="white"/>
</g>
<defs>
<clipPath id="clip0_100_12">
<rect width="1490" height="1787" fill="white"/>
</clipPath>
</defs>
</svg>
